<svg width="100" height="100" viewBox="0 0 100 100" xmlns="http://www.w3.org/2000/svg">
  <!-- Heart shape with animation -->
  <path d="M50 88.9C47.5 88.9 45.1 88 43.2 86.3C22.1 68.8 10 58.1 10 43.7C10 32.3 18.8 23.5 30.2 23.5C38 23.5 45.1 28.4 50 36.3C54.9 28.4 62 23.5 69.8 23.5C81.2 23.5 90 32.3 90 43.7C90 58.1 77.9 68.8 56.8 86.3C54.9 88 52.5 88.9 50 88.9Z" 
        fill="#ff6b6b" 
        stroke="#ff5252"
        stroke-width="2">
    <!-- Heartbeat animation -->
    <animate 
      attributeName="fill" 
      values="#ff6b6b;#ff8c8c;#ff6b6b" 
      dur="2s" 
      repeatCount="indefinite" />
    <animate 
      attributeName="d" 
      values="M50 88.9C47.5 88.9 45.1 88 43.2 86.3C22.1 68.8 10 58.1 10 43.7C10 32.3 18.8 23.5 30.2 23.5C38 23.5 45.1 28.4 50 36.3C54.9 28.4 62 23.5 69.8 23.5C81.2 23.5 90 32.3 90 43.7C90 58.1 77.9 68.8 56.8 86.3C54.9 88 52.5 88.9 50 88.9Z;
              M50 85.9C47.5 85.9 45.1 85 43.2 83.3C25.1 68.8 13 58.1 13 46.7C13 35.3 20.8 27.5 30.2 27.5C37 27.5 43.1 31.4 47 37.3C50.9 31.4 57 27.5 63.8 27.5C73.2 27.5 81 35.3 81 46.7C81 58.1 68.9 68.8 56.8 83.3C54.9 85 52.5 85.9 50 85.9Z;
              M50 88.9C47.5 88.9 45.1 88 43.2 86.3C22.1 68.8 10 58.1 10 43.7C10 32.3 18.8 23.5 30.2 23.5C38 23.5 45.1 28.4 50 36.3C54.9 28.4 62 23.5 69.8 23.5C81.2 23.5 90 32.3 90 43.7C90 58.1 77.9 68.8 56.8 86.3C54.9 88 52.5 88.9 50 88.9Z" 
      dur="2s" 
      repeatCount="indefinite" />
  </path>
  
  <!-- Highlight on the top left of the heart -->
  <path d="M30 40C30 40 25 30 35 25C45 20 50 35 50 35"
        fill="none"
        stroke="#ffffff"
        stroke-width="2"
        stroke-linecap="round"
        opacity="0.5">
  </path>
</svg>